<svg id="Work" xmlns="http://www.w3.org/2000/svg" viewBox="0 0 367.82 367.81"><defs><style>.cls-1{fill:#fff;}.cls-2,.cls-3{fill:none;stroke:#fff;stroke-miterlimit:10;}.cls-3{stroke-width:3px;}</style></defs><title>CL square white</title><path d="M370.65,194,192.24,372.36,7.07,187.19,185.48,8.79Zm-12.42-.13L185.61,21.2,19.49,187.32,192.11,360Z" transform="translate(-4.95 -6.67)"/><path d="M196.88,183.83V191a71.17,71.17,0,0,1-7.69.9V184.8A57.93,57.93,0,0,0,196.88,183.83Z" transform="translate(-4.95 -6.67)"/><path d="M185.61,21.2,358.23,193.83,192.11,360,19.49,187.32Zm70.53,260.7v-7H196.88V191l1-.16a39.42,39.42,0,0,0,10.88-3.5V180.2a59,59,0,0,1-11.92,3.63V165.05h-7.69V184.8c-1.2.07-2.42.12-3.63.12q-25.87,0-39.64-13.54t-13.77-38.72q0-17.75,6.91-30.07a45.54,45.54,0,0,1,18.61-18.53,54.74,54.74,0,0,1,26.05-6.21q10.4,0,23.86,4.81V75.32q-3.15-1.83-10.27-3.23A73.4,73.4,0,0,0,183,70.69q-17.4,0-30.81,7.69a53.15,53.15,0,0,0-20.84,21.72q-7.44,14-7.43,32.38,0,28.67,15.64,44.14t44.84,15.47c1.61,0,3.2-.07,4.77-.16v90Z" transform="translate(-4.95 -6.67)"/><path class="cls-1" d="M256.14,274.91v7H189.19v-90a71.17,71.17,0,0,0,7.69-.9v83.88Z" transform="translate(-4.95 -6.67)"/><path class="cls-1" d="M208.8,180.2v7.17a39.42,39.42,0,0,1-10.88,3.5l-1,.16v-7.2A59,59,0,0,0,208.8,180.2Z" transform="translate(-4.95 -6.67)"/><path class="cls-1" d="M207.58,75.32v7.34q-13.46-4.8-23.86-4.81a54.74,54.74,0,0,0-26.05,6.21,45.54,45.54,0,0,0-18.61,18.53q-6.92,12.33-6.91,30.07,0,25.17,13.77,38.72t39.64,13.54c1.21,0,2.43,0,3.63-.12v7.13c-1.57.09-3.16.16-4.77.16q-29.19,0-44.84-15.47t-15.64-44.14q0-18.36,7.43-32.38a53.15,53.15,0,0,1,20.84-21.72q13.41-7.69,30.81-7.69a73.4,73.4,0,0,1,14.29,1.4Q204.44,73.48,207.58,75.32Z" transform="translate(-4.95 -6.67)"/><path class="cls-1" d="M196.88,165.05v18.78a57.93,57.93,0,0,1-7.69,1V165.05Z" transform="translate(-4.95 -6.67)"/><rect class="cls-2" x="71.4" y="68.51" width="234.93" height="244.13" transform="translate(-84.39 182.69) rotate(-45)"/><rect class="cls-3" x="62.71" y="59.64" width="252.3" height="261.87" transform="translate(-84.39 182.69) rotate(-45)"/></svg>