<svg id="Work" xmlns="http://www.w3.org/2000/svg" viewBox="0 0 367.82 367.82"><defs><style>.cls-1,.cls-2{fill:none;stroke:#000;stroke-miterlimit:10;}.cls-2{stroke-width:3px;}</style></defs><title>Untitled-1</title><rect class="cls-1" x="66.8" y="73.11" width="244.13" height="234.93" transform="translate(185.12 -84.39) rotate(45)"/><rect class="cls-2" x="57.93" y="64.42" width="261.87" height="252.31" transform="translate(185.12 -84.39) rotate(45)"/><path d="M197.92,190.87a39.42,39.42,0,0,0,10.88-3.5V180.2a59,59,0,0,1-11.92,3.63V191Z" transform="translate(-4.95 -6.67)"/><path d="M185.56,184.92q-25.87,0-39.64-13.54t-13.77-38.72q0-17.75,6.91-30.07a45.54,45.54,0,0,1,18.61-18.53,54.74,54.74,0,0,1,26.05-6.21q10.4,0,23.86,4.81V75.32q-3.15-1.83-10.27-3.23A73.4,73.4,0,0,0,183,70.69q-17.4,0-30.81,7.69a53.15,53.15,0,0,0-20.84,21.72q-7.44,14-7.43,32.38,0,28.67,15.64,44.14t44.84,15.47c1.61,0,3.2-.07,4.77-.16V184.8C188,184.87,186.77,184.92,185.56,184.92Z" transform="translate(-4.95 -6.67)"/><path d="M196.88,165.05h-7.69V184.8a57.93,57.93,0,0,0,7.69-1Z" transform="translate(-4.95 -6.67)"/><path d="M196.88,274.91V191a71.17,71.17,0,0,1-7.69.9v90h66.95v-7Z" transform="translate(-4.95 -6.67)"/></svg>